<svg width="41" height="42" viewBox="0 0 41 42" fill="none" xmlns="http://www.w3.org/2000/svg">
<path d="M20.0176 13.25C22.0756 13.2558 24.0472 14.0778 25.4997 15.5357C26.9523 16.9935 27.7672 18.968 27.7656 21.026C27.7587 23.0372 26.9703 24.9669 25.5668 26.4074C24.1634 27.848 22.2549 28.6866 20.2446 28.746L19.9986 28.75C17.9871 28.7457 16.056 27.9595 14.6135 26.5575C13.171 25.1556 12.3301 23.2476 12.2686 21.237L12.2656 20.992C12.2677 18.9376 13.0855 16.9681 14.5391 15.5164C15.9927 14.0647 17.9632 13.2495 20.0176 13.25ZM21.9666 21.75H18.0636C18.2186 24.647 19.2396 27.093 19.9496 27.243L20.0176 27.25C20.6976 27.248 21.7376 24.885 21.9496 22.02L21.9666 21.75ZM26.2216 21.75H23.4696C23.3786 23.71 22.9396 25.533 22.2816 26.826C23.2965 26.4306 24.1906 25.7771 24.8755 24.9302C25.5604 24.0832 26.0123 23.0722 26.1866 21.997L26.2216 21.75ZM16.5606 21.75H13.8106C13.9466 22.8724 14.3843 23.937 15.077 24.8306C15.7697 25.7242 16.6915 26.4134 17.7446 26.825C17.1296 25.617 16.7086 23.95 16.5826 22.139L16.5606 21.749V21.75ZM17.7486 15.174L17.6336 15.22C16.6074 15.6438 15.7125 16.3331 15.0406 17.217C14.3688 18.101 13.9443 19.1478 13.8106 20.25H16.5606C16.6456 18.42 17.0316 16.71 17.6196 15.44L17.7486 15.174ZM20.0106 14.75C19.3086 14.752 18.2266 17.262 18.0636 20.25H21.9676C21.8116 17.347 20.7896 14.907 20.0756 14.756L20.0106 14.749V14.75ZM22.2906 15.182L22.3136 15.232C22.9566 16.52 23.3826 18.316 23.4706 20.25H26.2186C26.08 19.13 25.6419 18.0681 24.9504 17.1762C24.2589 16.2843 23.3407 15.5954 22.2906 15.182Z" fill="#222222"/>
</svg>
